<svg xmlns="http://www.w3.org/2000/svg" width="800" height="800" viewBox="0 0 800 800">
  <defs>
    <radialGradient id="g" cx="50%" cy="50%" r="50%">
      <stop offset="0%" stop-color="#fff9c4"/>
      <stop offset="100%" stop-color="#ffd700"/>
    </radialGradient>
  </defs>
  <rect width="800" height="800" fill="url(#g)"/>
  <g fill="#1a1c1b" opacity="0.08">
    <circle cx="400" cy="400" r="120" fill="#000" opacity="0.06"/>
    <path d="M400 40 L420 200 L400 180 L380 200 Z" transform="rotate(0 400 400)"/>
    <path d="M400 40 L420 200 L400 180 L380 200 Z" transform="rotate(45 400 400)"/>
    <path d="M400 40 L420 200 L400 180 L380 200 Z" transform="rotate(90 400 400)"/>
    <path d="M400 40 L420 200 L400 180 L380 200 Z" transform="rotate(135 400 400)"/>
    <path d="M400 40 L420 200 L400 180 L380 200 Z" transform="rotate(180 400 400)"/>
    <path d="M400 40 L420 200 L400 180 L380 200 Z" transform="rotate(225 400 400)"/>
    <path d="M400 40 L420 200 L400 180 L380 200 Z" transform="rotate(270 400 400)"/>
    <path d="M400 40 L420 200 L400 180 L380 200 Z" transform="rotate(315 400 400)"/>
  </g>
</svg>
